<?xml version="1.0" standalone="no"?>
<!DOCTYPE svg PUBLIC "-//W3C//DTD SVG 20010904//EN"
 "http://www.w3.org/TR/2001/REC-SVG-20010904/DTD/svg10.dtd">
<svg version="1.0" xmlns="http://www.w3.org/2000/svg" id="404_error"
 width="8px" height="8px" viewBox="0 0 20 20"
 preserveAspectRatio="xMidYMid meet">

<g transform="translate(0.000000,512.000000) scale(0.100000,-0.100000)"
stroke="none">
<path d="M2355 5099 c-225 -24 -485 -98 -680 -194 -620 -305 -1035 -893 -1115
-1580 -14 -124 -133 -2895 -127 -2973 9 -126 94 -244 215 -300 101 -47 149
-43 552 38 438 89 404 89 840 -11 l315 -73 205 0 205 0 315 73 c436 101 403
100 840 11 418 -85 461 -87 568 -30 115 61 190 172 199 294 6 76 -113 2848
-127 2971 -90 775 -610 1422 -1345 1675 -267 91 -584 128 -860 99z m-398
-1511 c165 -61 297 -236 359 -473 21 -82 26 -124 27 -235 0 -139 -9 -207 -45
-320 -93 -293 -325 -475 -551 -430 -101 20 -164 55 -247 139 -211 213 -279
591 -166 923 40 119 83 192 160 275 63 68 162 126 246 142 59 12 152 3 217
-21z m1414 22 c91 -17 189 -72 255 -143 77 -83 120 -156 160 -275 70 -207 72
-425 4 -634 -39 -122 -92 -212 -174 -294 -190 -190 -437 -188 -626 5 -216 219
-279 643 -146 973 91 224 259 362 457 377 9 0 41 -3 70 -9z"/>
</g>
</svg>
