<?xml version="1.0" standalone="no"?>
<!DOCTYPE svg PUBLIC "-//W3C//DTD SVG 20010904//EN"
 "http://www.w3.org/TR/2001/REC-SVG-20010904/DTD/svg10.dtd">
<svg version="1.0" xmlns="http://www.w3.org/2000/svg"
 width="512.000000pt" height="512.000000pt" viewBox="0 0 512.000000 512.000000"
 preserveAspectRatio="xMidYMid meet">
<metadata>
Created by potrace 1.14, written by Peter Selinger 2001-2017
</metadata>
<g transform="translate(0.000000,512.000000) scale(0.100000,-0.100000)"
fill="#000000" stroke="none">
<path d="M2245 3839 c-248 -32 -456 -138 -633 -323 -133 -141 -231 -326 -262
-496 -6 -36 -16 -81 -21 -101 -13 -53 -85 -154 -138 -194 -26 -20 -65 -57 -88
-84 -42 -48 -84 -73 -215 -126 -173 -70 -296 -198 -366 -383 -23 -60 -26 -82
-26 -207 -1 -122 2 -150 23 -214 51 -155 175 -297 324 -371 149 -74 79 -71
1658 -67 1582 3 1468 -2 1644 81 171 81 303 209 389 375 74 143 91 218 91 406
0 127 -4 172 -19 220 -95 313 -308 528 -598 604 -100 26 -196 35 -214 20 -9
-7 -45 -11 -97 -10 -70 1 -92 7 -153 35 -39 19 -104 60 -144 92 -63 52 -77 70
-119 154 -59 118 -106 186 -190 274 -173 180 -375 282 -621 311 -128 16 -127
16 -225 4z m435 -680 c115 -31 193 -80 295 -183 93 -95 139 -168 186 -302 27
-78 49 -211 49 -301 l0 -72 35 14 c65 28 115 -14 115 -96 0 -39 -6 -53 -38
-90 -20 -24 -55 -66 -77 -94 -22 -27 -64 -76 -94 -107 -72 -77 -96 -78 -161
-5 -202 225 -198 218 -185 284 9 50 54 93 98 93 28 0 42 -8 67 -36 20 -24 35
-33 41 -27 16 16 12 201 -5 275 -47 202 -188 370 -358 427 -44 15 -87 21 -148
21 -86 0 -108 -6 -242 -64 -56 -24 -83 -20 -112 15 -35 42 -36 106 -1 147 29
35 111 75 204 101 94 27 235 27 331 0z m-784 -466 c68 -66 200 -225 210 -255
14 -41 0 -88 -37 -124 -40 -38 -80 -36 -124 6 -19 19 -38 31 -42 27 -3 -4 -5
-56 -4 -116 3 -184 57 -323 171 -441 113 -117 253 -169 405 -150 58 8 82 15
194 60 63 25 92 17 117 -32 34 -66 1 -137 -81 -177 -115 -56 -146 -63 -277
-68 -118 -5 -135 -3 -211 21 -116 36 -240 119 -318 214 -106 127 -177 326
-186 520 -3 67 -8 122 -11 122 -3 0 -16 -10 -28 -21 -28 -26 -64 -20 -101 17
-22 22 -25 32 -21 77 5 57 18 78 150 233 103 121 141 138 194 87z"/>
<path d="M4549 1100 l-44 -41 42 21 c23 11 47 29 53 40 17 32 -4 23 -51 -20z"/>
</g>
</svg>
