<?xml version="1.0" standalone="no"?>
<!DOCTYPE svg PUBLIC "-//W3C//DTD SVG 20010904//EN"
 "http://www.w3.org/TR/2001/REC-SVG-20010904/DTD/svg10.dtd">
<svg version="1.0" xmlns="http://www.w3.org/2000/svg"
 width="512.000000pt" height="512.000000pt" viewBox="0 0 512.000000 512.000000"
 preserveAspectRatio="xMidYMid meet">
<metadata>
Created by potrace 1.14, written by Peter Selinger 2001-2017
</metadata>
<g transform="translate(0.000000,512.000000) scale(0.100000,-0.100000)"
fill="#000000" stroke="none">
<path d="M2190 3829 c-371 -66 -677 -326 -804 -685 -23 -64 -38 -127 -51 -216
-8 -55 -69 -136 -185 -246 -107 -101 -145 -126 -236 -156 -76 -25 -161 -79
-232 -149 -75 -74 -123 -149 -159 -249 -23 -65 -26 -88 -26 -208 0 -120 2
-143 26 -208 37 -105 82 -176 162 -257 81 -81 161 -127 271 -155 75 -19 116
-20 1506 -20 1578 0 1503 -3 1658 64 237 101 407 300 482 563 19 65 22 102 22
228 0 149 -7 189 -47 301 -97 267 -323 465 -607 532 -59 14 -163 18 -181 6 -8
-5 -52 -7 -99 -5 -75 3 -94 8 -161 41 -42 21 -100 59 -129 84 -30 25 -57 46
-61 46 -4 0 -32 51 -63 113 -64 130 -127 217 -224 309 -128 121 -279 204 -450
250 -89 23 -323 33 -412 17z m482 -665 c198 -47 387 -222 471 -435 44 -110 58
-178 64 -302 6 -115 6 -118 27 -112 56 18 64 17 97 -13 30 -26 34 -36 33 -76
-1 -50 1 -47 -105 -177 -144 -177 -167 -195 -223 -173 -16 6 -203 214 -223
248 -32 54 -5 143 51 170 43 20 64 15 104 -26 17 -16 35 -27 41 -23 16 9 14
171 -4 257 -21 102 -82 221 -154 299 -143 157 -345 200 -542 116 -100 -44
-131 -46 -164 -12 -20 19 -25 34 -25 78 0 47 4 57 33 84 51 50 189 102 307
116 44 5 153 -4 212 -19z m-693 -559 c153 -173 161 -194 108 -272 -42 -62
-114 -65 -152 -7 -28 44 -35 27 -35 -85 0 -84 5 -127 23 -187 48 -168 154
-302 292 -370 71 -35 86 -39 175 -42 104 -4 126 0 247 49 39 16 79 29 88 29 9
0 30 -14 47 -30 28 -28 30 -35 26 -81 -8 -81 -59 -121 -218 -171 -85 -27 -259
-29 -346 -3 -119 34 -255 122 -329 212 -63 76 -137 222 -165 324 -22 82 -41
249 -33 292 6 31 -16 38 -37 12 -19 -23 -57 -18 -92 14 -29 26 -33 35 -31 77
2 54 23 88 146 232 92 107 110 122 153 122 27 0 44 -15 133 -115z"/>
<path d="M4550 1101 c-28 -24 -30 -29 -13 -24 22 5 74 53 57 53 -5 0 -25 -13
-44 -29z"/>
</g>
</svg>
