<?xml version="1.0" standalone="no"?>
<!DOCTYPE svg PUBLIC "-//W3C//DTD SVG 20010904//EN"
 "http://www.w3.org/TR/2001/REC-SVG-20010904/DTD/svg10.dtd">
<svg version="1.1" id="404" xmlns="http://www.w3.org/2000/svg" xmlns:xlink="http://www.w3.org/1999/xlink" x="0px" y="0px"
	 width="100%" viewBox="0 0 512 512">
<path 
	d="M 183.7 34.8 C 199.9 25.2 216.7 19.7 235.5 19.8 C 251.1 19.8 265.9 21.5 280.5 27.2 C 287.7 29.9 296 29.6 303.4 32 C 317.4 36.5 331.2 41.9 345 47.2 C 346.4 47.7 348.2 49.7 348.2 51 C 348.1 57 352.4 60.2 355.8 63.9 C 378.4 88.9 387.1 118.3 384.4 151.8 C 382.1 179.1 370 202.3 356.4 225.2 C 349.5 236.7 344.3 249.2 337.7 260.9 C 327.8 278.2 317 295.1 307.2 312.5 C 301.5 322.6 295.9 333 292.4 344 C 288 357.7 289.6 371.8 294.5 385.5 C 298.6 396.9 295.5 403.3 283.4 404 C 270.3 404.8 262.6 397.2 256.2 387.3 C 253.2 382.7 252.1 378.1 252.6 372.7 C 255.7 341.4 263.6 311.6 278.3 283.6 C 282.2 276.4 282.8 267.4 284.7 259.1 C 290.5 233.1 301.9 209.9 319 189.5 C 323.6 184 328.6 178.9 333 173.3 C 334.4 171.6 335.4 168.9 335.2 166.7 C 333.8 143.4 330.4 120.4 322 98.4 C 320.7 95.2 318.4 92 315.8 89.7 C 304.7 79.7 291.2 73.7 277.1 69.6 C 264.2 65.7 250.9 63.4 237.7 60.8 C 235.3 60.4 232 61.3 230 62.8 C 211 76.9 202.1 96.9 196.9 119.2 C 192 140.5 192.4 162.1 190.9 183.7 C 190.3 192.6 190 201.7 185.5 209.9 C 182.4 215.6 177.6 219.2 171.5 221.2 C 167.6 222.5 164 222.7 160.8 218.7 C 159.5 217 156.2 216 153.8 216.1 C 148.6 216.4 145.7 214.2 143.1 209.8 C 131.1 189.2 126.9 166.9 129.9 143.5 C 132.6 122.1 136.6 100.8 144.7 80.6 C 152.5 61.2 165.6 46.1 183.7 34.8 M 326.9 246.9 C 330.3 242.1 333.7 237.2 337.1 232.4 C 336.6 232.1 336.2 231.8 335.7 231.5 C 329.7 234.9 328.2 241.1 325.8 247.1 C 326 247.2 326.1 247.2 326.9 246.9 M 301.1 65.2 C 301.2 65.2 301.3 65.3 301.4 65.3 C 301.4 65.1 301.3 64.9 300.9 64.1 C 288.4 56.3 275.6 49.5 260 52.2 C 273.7 56.5 287.3 60.8 301.1 65.2 M 160.1 166 C 160.9 170 161.5 174.1 162.8 177.8 C 163.2 178.9 166.1 179.8 167.4 179.4 C 168.5 179 169.6 176.7 169.7 175.2 C 170 167.9 169.6 160.6 170 153.4 C 171.5 127.1 180.2 103.4 195.4 82 C 199.2 76.7 202.4 71 205.9 65.5 C 205.5 65.2 205.2 64.9 204.9 64.7 C 202.2 67.1 198.9 69.1 196.9 71.9 C 190.5 81.2 183.8 90.4 178.5 100.3 C 167.7 120.5 162.4 142.5 160.1 166 M 151.9 129.1 C 151.7 131 151.4 132.9 151.1 135.5 C 155.6 122 159.8 109.4 164 96.8 C 156.9 106.2 154.9 117.5 151.9 129.1 M 371.2 128.6 C 370.1 122.7 369 116.9 367.9 111 C 367.4 111.1 366.9 111.2 366.3 111.4 C 365.5 117.6 368.2 123 371.2 128.6 M 350.4 180.8 C 350.5 179.2 350.6 177.5 350.7 175.9 C 350 175.8 349.3 175.7 348.6 175.6 C 348 179.6 347.4 183.6 346.9 187.6 C 347.5 187.7 348.2 187.8 348.9 187.9 C 349.3 185.8 349.8 183.6 350.4 180.8 M 346.3 141.9 C 346.5 145.2 346.8 148.6 347 151.9 C 347.8 151.7 348.5 151.6 349.3 151.4 C 348.4 148.2 347.5 144.9 346.3 141.9 z"/>
<path 
	d="M 247.7 426.7 C 252.1 423.5 256.4 420.7 260.2 417.4 C 267.8 410.8 280.9 409.7 290.4 416.7 C 300.7 424.2 308.5 433.6 308.1 447.9 C 307.8 460.9 301.8 470 291 476.3 C 287.7 478.3 285.4 480.3 284.1 484.2 C 282.6 488.9 280.4 493.5 274.2 494 C 266.4 494.6 258.9 494 255.4 486.1 C 252.6 479.9 248.3 475.3 243.5 471 C 234.6 463 234.1 435.2 247.7 426.7 M 264.1 446.1 C 267.9 449.8 268.9 444.3 271.7 443.4 C 269.6 441.8 267.3 440.3 265.2 440.6 C 262.6 441 262.1 443.3 264.1 446.1 M 277 423.6 C 276.3 423.9 275.6 424.1 274 424.7 C 277 426.5 279.2 427.8 281.5 429.1 C 281.7 428.8 282 428.4 282.3 428 C 280.7 426.6 279.1 425.2 277 423.6 M 287.5 434 C 287.5 434 287.4 433.9 287.4 433.9 C 287.4 433.9 287.4 434 287.5 434 z"/>
<path opacity="0.000000"
	d="M 160.1 165.6 C 162.4 142.5 167.7 120.5 178.5 100.3 C 183.8 90.4 190.5 81.2 196.9 71.9 C 198.9 69.1 202.2 67.1 204.9 64.7 C 205.2 64.9 205.5 65.2 205.9 65.5 C 202.4 71 199.2 76.7 195.4 82 C 180.2 103.4 171.5 127.1 170 153.4 C 169.6 160.6 170 167.9 169.7 175.2 C 169.6 176.7 168.5 179 167.4 179.4 C 166.1 179.8 163.2 178.9 162.8 177.8 C 161.5 174.1 160.9 170 160.1 165.6 z"/>
<path opacity="0.000000"
	d="M 300.9 65.1 C 287.3 60.8 273.7 56.5 260 52.2 C 275.6 49.5 288.4 56.3 301 64.5 C 301.1 64.9 300.9 65.1 300.9 65.1 z"/>
<path opacity="0.000000"
	d="M 151.9 128.8 C 154.9 117.5 156.9 106.2 164 96.8 C 159.8 109.4 155.6 122 151.1 135.5 C 151.4 132.9 151.7 131 151.9 128.8 z"/>
<path opacity="0.000000"
	d="M 325.9 246.9 C 328.2 241.1 329.7 234.9 335.7 231.5 C 336.2 231.8 336.6 232.1 337.1 232.4 C 333.7 237.2 330.3 242.1 326.5 247 C 326.1 247.1 325.9 246.9 325.9 246.9 z"/>
<path opacity="0.000000"
	d="M 371.1 128.5 C 368.2 123 365.5 117.6 366.3 111.4 C 366.9 111.2 367.4 111.1 367.9 111 C 369 116.9 370.1 122.7 371.1 128.5 z"/>
<path opacity="0.000000"
	d="M 350.3 181.1 C 349.8 183.6 349.3 185.8 348.9 187.9 C 348.2 187.8 347.5 187.7 346.9 187.6 C 347.4 183.6 348 179.6 348.6 175.6 C 349.3 175.7 350 175.8 350.7 175.9 C 350.6 177.5 350.5 179.2 350.3 181.1 z"/>
<path opacity="0.000000"
	d="M 346.4 141.8 C 347.5 144.9 348.4 148.2 349.3 151.4 C 348.5 151.6 347.8 151.7 347 151.9 C 346.8 148.6 346.5 145.2 346.4 141.8 z"/>
<path opacity="0.000000"
	d="M 301.2 64.8 C 301.3 64.9 301.4 65.1 301.4 65.3 C 301.3 65.3 301.2 65.2 301 65.1 C 300.9 65.1 301.1 64.9 301.2 64.8 z"/>
<path opacity="0.000000"
	d="M 326.2 247.2 C 326.1 247.2 326 247.2 325.9 247 C 325.9 246.9 326.1 247.1 326.2 247.2 z"/>
<path opacity="0.000000"
	d="M 264 445.8 C 262.1 443.3 262.6 441 265.2 440.6 C 267.3 440.3 269.6 441.8 271.7 443.4 C 268.9 444.3 267.9 449.8 264 445.8 z"/>
<path opacity="0.000000"
	d="M 277.2 423.7 C 279.1 425.2 280.7 426.6 282.3 428 C 282 428.4 281.7 428.8 281.5 429.1 C 279.2 427.8 277 426.5 274 424.7 C 275.6 424.1 276.3 423.9 277.2 423.7 z"/>
<path opacity="0.000000"
	d="M 287.5 434 C 287.4 434 287.4 433.9 287.4 433.9 C 287.4 433.9 287.5 434 287.5 434 z"/>
</svg>