<?xml version="1.0" standalone="no"?>
<!DOCTYPE svg PUBLIC "-//W3C//DTD SVG 20010904//EN"
 "http://www.w3.org/TR/2001/REC-SVG-20010904/DTD/svg10.dtd">
<svg version="1.0" xmlns="http://www.w3.org/2000/svg"
 width="256.000000pt" height="256.000000pt" viewBox="0 0 256.000000 256.000000"
 preserveAspectRatio="xMidYMid meet">
<metadata>
Created by potrace 1.14, written by Peter Selinger 2001-2017
</metadata>
<g transform="translate(0.000000,256.000000) scale(0.100000,-0.100000)"
fill="#000000" stroke="none">
<path d="M844 1905 c-69 -22 -106 -47 -163 -108 -27 -30 -71 -105 -71 -122 0
-5 -20 -21 -45 -34 -61 -32 -116 -89 -151 -155 -26 -50 -33 -56 -69 -62 -91
-15 -193 -84 -242 -164 -80 -131 -72 -312 18 -432 71 -94 188 -152 295 -147
35 2 45 -4 94 -53 139 -138 366 -133 493 11 27 31 29 32 45 14 127 -138 348
-141 492 -7 l25 23 60 -21 c114 -38 249 -8 336 75 l37 35 63 -17 c35 -10 82
-16 103 -15 48 2 156 34 156 46 0 4 6 8 13 8 18 0 78 58 115 113 18 26 30 47
27 47 -3 0 2 15 11 32 22 43 27 160 9 228 -39 146 -170 262 -309 273 -45 3
-50 6 -53 31 -7 53 -45 136 -83 184 -115 146 -327 178 -469 70 -24 -18 -24
-18 -47 14 -36 53 -108 105 -178 128 -53 17 -144 16 -203 -4 -46 -15 -52 -15
-89 0 -50 21 -167 26 -220 9z"/>
</g>
</svg>
